<svg version="1.1" id="Layer_1" xmlns="http://www.w3.org/2000/svg" xmlns:xlink="http://www.w3.org/1999/xlink" x="0px" y="0px"
	 width="100%" viewBox="0 0 1024 1024" enable-background="new 0 0 1024 1024" xml:space="preserve">
<path fill="#000000" opacity="1.000000" stroke="none" 
	d="
M1.000000,554.000000 
	C1.000000,451.979095 1.000000,349.958221 1.226652,247.613312 
	C2.949112,248.463348 3.968951,247.783188 4.575704,246.334671 
	C5.317343,244.564148 6.957736,243.570251 7.992251,242.133682 
	C12.332783,236.106171 18.587875,231.554794 21.182947,224.157913 
	C26.954926,207.705780 34.691635,192.076263 42.080601,176.329895 
	C47.458820,164.868561 57.752522,158.527298 69.659981,156.563721 
	C78.427681,155.117874 85.926674,151.913712 92.957314,147.130707 
	C97.809082,143.830002 102.786209,140.863907 108.139503,138.523209 
	C123.102104,131.980957 136.778244,123.389603 147.911758,111.422150 
	C158.828369,99.687874 172.521988,92.020500 187.217682,87.889664 
	C204.834290,82.937775 223.593369,84.971977 241.874664,84.557869 
	C266.392670,84.002472 289.831848,91.764923 313.939911,94.474640 
	C315.242004,94.620995 316.570221,95.042290 317.759521,95.603966 
	C326.670258,99.812149 336.233398,101.114807 345.889130,101.929939 
	C350.262329,102.299126 354.320404,103.449142 358.383087,105.140686 
	C368.503021,109.354225 377.152863,115.874664 385.979462,122.120964 
	C402.039825,133.486389 419.416718,142.723999 436.005371,153.235886 
	C445.279297,159.112579 454.404175,165.481415 464.336426,170.002228 
	C479.313141,176.819107 495.123993,181.652786 511.039307,185.977448 
	C526.378723,190.145630 540.368774,187.926071 552.860291,177.652130 
	C555.927917,175.129074 558.965210,172.544235 562.569763,170.660812 
	C575.115173,164.105804 587.042725,156.505524 599.052368,149.025467 
	C607.209167,143.945084 615.196472,138.112183 624.911804,136.289688 
	C638.689697,133.705109 650.546509,127.440201 659.678955,117.082428 
	C668.562012,107.007553 679.042725,102.208069 692.371643,101.662430 
	C700.239319,101.340347 708.397278,100.037239 715.109741,95.088196 
	C719.122009,92.129944 723.467285,90.309654 728.339539,89.604523 
	C747.444031,86.839607 765.596191,80.861877 783.077026,72.880318 
	C798.982300,65.618156 814.537842,63.246525 829.996216,73.910477 
	C832.330139,75.520538 834.697449,77.016052 836.756714,78.993568 
	C840.366272,82.459915 844.318909,85.417046 848.661926,88.007690 
	C853.640015,90.977234 859.099060,93.351448 863.202087,97.626251 
	C868.519653,103.166336 875.110840,106.469666 882.550354,107.105232 
	C891.164795,107.841179 898.368896,109.957413 904.332031,117.013847 
	C911.940918,126.017731 923.009277,130.852966 932.591675,137.424210 
	C950.818054,149.923141 965.712280,165.192108 975.846497,184.914505 
	C979.356323,191.744980 983.333496,198.085922 988.721252,203.767502 
	C995.573181,210.993042 998.307678,220.304306 996.205688,230.085983 
	C994.172668,239.546860 992.284302,249.038193 991.162415,258.601685 
	C989.456665,273.143341 988.730103,287.699036 990.918030,302.404663 
	C994.156494,324.171295 992.896118,346.334045 995.461426,368.156738 
	C998.296448,392.273926 996.865479,415.992188 992.039978,439.697968 
	C987.981384,459.636230 985.773926,479.948517 984.646240,500.159393 
	C983.919312,513.187500 983.446289,526.067139 980.075867,538.642151 
	C975.539551,555.566711 969.717346,571.983093 960.789734,587.255737 
	C952.449402,601.523926 945.459351,616.401917 943.738892,633.252014 
	C943.115845,639.354553 941.939758,645.486084 940.232178,651.377136 
	C933.978027,672.954407 929.944031,694.837463 931.047180,717.371521 
	C931.910706,735.010925 929.481018,752.060730 925.499084,769.263367 
	C922.283936,783.153503 915.378967,794.824341 908.489014,806.727356 
	C905.175842,812.451111 902.043701,818.222595 897.422302,823.257141 
	C891.781311,829.402283 885.597534,834.949585 879.877625,840.952454 
	C866.105408,855.405945 853.324768,870.783936 838.140442,883.900574 
	C826.361206,894.075745 815.841125,905.576660 801.833130,913.242004 
	C795.402771,916.760803 788.825378,920.424011 782.719177,924.836243 
	C774.649231,930.667603 766.934570,937.158569 758.316162,942.095642 
	C745.468201,949.455505 731.859131,955.409546 718.452820,961.729675 
	C705.384766,967.890442 692.297913,968.947937 678.720215,964.176941 
	C662.302002,958.407776 645.510925,956.441956 628.654419,961.253662 
	C613.020691,965.716187 597.243286,967.341370 581.198730,965.791321 
	C569.604675,964.671265 558.057922,962.858459 546.571960,960.879456 
	C535.025391,958.889954 523.900269,959.353333 512.546936,962.718018 
	C498.968781,966.742065 488.586945,973.954346 482.647003,987.039917 
	C481.724731,989.071594 480.324524,991.687195 482.227112,993.044983 
	C487.756683,996.991150 489.679291,1003.458252 493.852600,1008.283081 
	C494.818939,1009.400269 495.977814,1010.822266 497.269196,1011.109497 
	C504.935913,1012.814392 508.289246,1021.638123 516.423645,1022.739075 
	C514.630981,1022.970032 512.838318,1023.200989 510.307678,1023.527100 
	C513.440918,1024.127075 515.720459,1024.563477 518.000000,1025.000000 
	C497.312439,1025.000000 476.624878,1025.000000 455.697449,1024.888916 
	C456.186890,1024.439697 456.916229,1024.101807 457.479828,1023.840637 
	C457.292480,1022.442444 454.960663,1023.688477 455.296478,1021.770813 
	C466.555054,1017.100220 468.451172,1011.500671 462.542084,1000.562439 
	C461.700714,999.004883 461.175659,997.381958 462.160309,995.826965 
	C464.488281,992.150574 462.538422,990.111511 459.691620,988.005432 
	C453.879272,983.705627 447.193573,981.039551 440.887024,977.681274 
	C427.814240,970.719788 414.958496,963.386169 401.593323,956.916931 
	C389.217041,950.926392 377.827209,951.592590 365.566162,956.626038 
	C352.476410,961.999756 338.956451,964.195068 324.520447,961.539062 
	C302.487305,957.485474 281.835297,948.625122 259.901642,944.222351 
	C247.682388,941.769592 236.665253,935.307434 225.119202,930.624329 
	C210.802750,924.817627 196.211990,919.630798 181.964661,913.588928 
	C172.417892,909.540405 162.431473,905.743530 156.516846,896.759033 
	C150.584717,887.747986 144.539474,878.731934 139.782227,868.969604 
	C136.359680,861.946167 133.605911,854.359131 128.958069,848.234558 
	C123.896812,841.565002 120.230034,834.485168 117.679848,826.737000 
	C114.957161,818.464905 110.222549,811.844543 104.215584,805.519836 
	C96.337608,797.225220 88.269913,789.050964 81.555908,779.606873 
	C75.393723,770.938965 71.639534,761.175415 66.617607,752.016479 
	C62.216412,743.989746 62.460415,736.596375 65.622238,728.602234 
	C68.942558,720.207336 70.096489,711.472778 68.209320,702.603394 
	C66.033188,692.376099 61.438751,690.709229 53.427399,697.115051 
	C49.710918,700.086792 46.087379,700.342712 41.826534,698.491150 
	C35.897316,695.914551 33.155628,690.821655 31.160643,685.296143 
	C29.165863,679.771240 25.412891,675.568237 21.698662,671.328491 
	C19.191616,668.466797 16.398535,668.766907 14.239818,671.960754 
	C12.907154,673.932495 10.746340,675.154480 9.441311,676.870972 
	C7.145099,679.890930 2.306729,678.989746 1.000000,683.000000 
	C1.000000,660.979126 1.000000,638.958191 1.203311,616.734863 
	C5.273055,622.980896 12.384266,625.955566 17.298664,631.323547 
	C19.053465,633.240295 21.465300,632.334351 23.703455,631.022644 
	C32.019188,626.149170 37.765820,618.809692 42.807411,610.946594 
	C51.625961,597.192749 50.282238,584.681274 39.193703,572.806946 
	C35.295376,568.632324 32.288395,563.922607 29.982983,558.664429 
	C27.715197,553.492004 25.153770,548.426392 22.377491,543.507874 
	C20.896978,540.884949 18.313457,537.939636 15.173525,540.352722 
	C9.988579,544.337524 4.106298,547.788635 1.000000,554.000000 
M848.570007,367.158051 
	C849.613159,351.267426 850.323242,335.344147 851.877747,319.503693 
	C852.432190,313.853851 852.409424,308.229218 852.792297,302.602203 
	C854.078796,283.694580 855.109375,264.860779 849.172241,246.320938 
	C841.049133,220.954788 823.301392,210.754654 798.646301,211.599472 
	C786.657776,212.010254 775.106079,215.400299 763.842407,219.653976 
	C730.447754,232.265335 702.326416,253.037109 676.460815,276.953918 
	C663.285217,289.136871 650.738159,302.047729 638.626282,315.378601 
	C622.078125,333.592377 606.394043,352.490875 591.484924,372.028107 
	C565.044800,406.675842 540.341675,442.487122 519.984802,481.137970 
	C517.960144,484.982086 515.575012,488.636383 513.021790,492.944702 
	C511.756775,490.994934 510.961426,489.956329 510.360413,488.815338 
	C495.318604,460.259369 478.233734,432.980530 459.791504,406.494171 
	C436.893829,373.609070 412.339203,342.015594 385.125153,312.653992 
	C366.255768,292.295563 346.685028,272.463593 324.376770,255.688416 
	C296.379456,234.635269 266.958618,216.522964 231.172577,212.142563 
	C204.547775,208.883545 185.129318,220.402802 176.613571,246.242523 
	C170.849579,263.732483 171.879364,281.798279 172.632095,299.673889 
	C173.495956,320.188965 175.739914,340.645325 177.352783,361.129669 
	C178.406784,374.515930 179.009323,387.951294 180.516663,401.285248 
	C183.027145,423.492859 184.960464,445.760437 188.213821,467.896332 
	C192.007263,493.707031 202.670181,516.177612 219.857269,535.474304 
	C238.485413,556.388916 262.537598,568.440430 289.225891,575.541321 
	C310.925720,581.314880 333.127014,582.277466 355.457581,581.647217 
	C357.656525,581.585205 359.808807,579.671875 362.151520,581.393677 
	C361.246826,582.957947 359.637268,582.996948 358.255981,583.301941 
	C337.391846,587.909485 317.425781,594.963867 298.642914,605.209656 
	C284.356781,613.002563 271.366241,622.505859 261.596069,635.692993 
	C247.774979,654.347839 242.961685,674.913757 248.958710,697.791443 
	C254.558105,719.152222 266.432739,736.791382 281.081543,752.693787 
	C289.066864,761.362488 297.408722,769.747070 306.525024,777.335815 
	C323.355927,791.346436 341.041931,803.727966 362.357117,810.100220 
	C392.859772,819.218994 419.455078,811.764099 442.673828,790.983459 
	C460.128754,775.361511 472.584290,755.869385 483.205902,735.250732 
	C493.961060,714.372925 502.231293,692.426086 509.612946,670.145325 
	C510.353363,667.910461 510.583191,665.270020 513.233521,663.813232 
	C515.925964,666.585388 516.347473,670.146484 517.440491,673.363098 
	C530.166626,710.814941 544.967529,747.239990 570.752319,777.991943 
	C581.205505,790.458862 593.442322,800.972351 608.574158,807.481140 
	C633.030579,818.000793 657.052124,815.272400 680.236267,803.668152 
	C712.557312,787.490784 738.213196,763.353943 759.526184,734.535706 
	C770.344238,719.908081 777.689148,703.465149 779.366638,685.146057 
	C781.332642,663.677124 773.675659,645.179871 759.309937,629.636719 
	C738.748596,607.390015 711.822388,596.113464 683.600342,587.412354 
	C676.907593,585.348877 670.072571,583.747009 663.302979,581.932861 
	C664.204773,580.934204 664.997559,580.605896 665.744934,580.688416 
	C686.707947,583.004211 707.524414,581.841736 728.102905,577.475281 
	C760.828979,570.531250 789.675903,556.591431 810.967407,529.761963 
	C824.094360,513.220642 832.952209,494.660553 836.687378,473.754730 
	C839.079651,460.364624 840.421692,446.852753 841.937439,433.348694 
	C843.749023,417.209320 845.322571,401.054901 846.660889,384.872223 
	C847.124817,379.263336 847.863586,373.677185 848.570007,367.158051 
M2.286918,454.731110 
	C2.612970,455.566681 3.344535,456.523956 3.783788,455.161255 
	C5.180793,450.827087 4.753643,446.516296 3.049631,442.351105 
	C1.713937,446.251984 2.029179,450.177002 2.286918,454.731110 
z"/>
<path fill="#000000" opacity="1.000000" stroke="none" 
	d="
M343.468628,1025.000000 
	C350.722046,1023.279602 358.468506,1023.698608 366.610992,1024.867676 
	C359.312408,1025.000000 351.624847,1025.000000 343.468628,1025.000000 
z"/>
<path fill="#000000" opacity="1.000000" stroke="none" 
	d="
M365.604797,1020.869812 
	C366.901611,1021.132996 367.837494,1021.350281 368.773407,1021.567566 
	C368.754059,1021.973389 368.734741,1022.379211 368.715424,1022.785034 
	C360.228088,1023.307251 351.737579,1023.541992 343.221252,1022.319641 
	C350.358917,1018.219421 357.800903,1019.513611 365.604797,1020.869812 
z"/>
</svg>